<svg xmlns="http://www.w3.org/2000/svg" xmlns:xlink="http://www.w3.org/1999/xlink" width="1530" height="495" viewBox="0 0 1530 495" role="img" aria-label="console2svg output">
<style>
.crt {
  font-family: ui-monospace,"Cascadia Mono","Segoe UI Mono","SFMono-Regular",Menlo,monospace;
  font-size: 14px;
}
text {
  dominant-baseline: alphabetic;
}
.bg {
  shape-rendering: crispEdges;
}
</style>
<rect x="0.5" y="0.5" rx="10" ry="10" width="1529" height="494" fill="#1f1f1f" stroke="#3a3a3a"/>
<rect x="1" y="1" rx="9" ry="9" width="1528" height="27" fill="#2c2c2c"/>
<circle cx="14" cy="14" r="5" fill="#ff5f57"/>
<circle cx="30" cy="14" r="5" fill="#febc2e"/>
<circle cx="46" cy="14" r="5" fill="#28c840"/>
<rect x="1" y="28" width="1528" height="466" rx="9" ry="9" fill="#1e1e1e"/>
<g transform="translate(9 36)">
<rect width="1512" height="450" fill="#1e1e1e"/>
<rect class="bg" x="0" y="0" width="1512" height="18" fill="#474B4F"/>
<text class="crt" x="0" y="14" fill="#F6FFFF" textLength="16.8" lengthAdjust="spacing" style="font-weight:bold;">📋</text>
<text class="crt" x="25.2" y="14" fill="#F6FFFF" textLength="67.2" lengthAdjust="spacing" style="font-weight:bold;">Sessions</text>
<text class="crt" x="100.8" y="14" fill="#F6FFFF" textLength="8.4" lengthAdjust="spacing" style="font-weight:bold;">—</text>
<text class="crt" x="117.6" y="14" fill="#F6FFFF" textLength="8.4" lengthAdjust="spacing" style="font-weight:bold;">0</text>
<text class="crt" x="134.4" y="14" fill="#F6FFFF" textLength="67.2" lengthAdjust="spacing" style="font-weight:bold;">sessions</text>
<rect class="bg" x="0" y="18" width="1512" height="18" fill="#0F1D27"/>
<rect class="bg" x="0" y="36" width="1512" height="18" fill="#0F1D27"/>
<rect class="bg" x="0" y="54" width="1512" height="18" fill="#0F1D27"/>
<rect class="bg" x="0" y="72" width="1512" height="18" fill="#0F1D27"/>
<rect class="bg" x="0" y="90" width="1512" height="18" fill="#0F1D27"/>
<rect class="bg" x="0" y="108" width="1512" height="18" fill="#0F1D27"/>
<rect class="bg" x="0" y="126" width="1512" height="18" fill="#0F1D27"/>
<rect class="bg" x="0" y="144" width="1512" height="18" fill="#0F1D27"/>
<rect class="bg" x="0" y="162" width="1512" height="18" fill="#0F1D27"/>
<rect class="bg" x="0" y="180" width="1512" height="18" fill="#0F1D27"/>
<rect class="bg" x="0" y="198" width="1512" height="18" fill="#0F1D27"/>
<rect class="bg" x="0" y="216" width="8.4" height="18" fill="#4B4E52"/>
<rect class="bg" x="8.4" y="216" width="25.2" height="18" fill="#383D42"/>
<rect class="bg" x="33.6" y="216" width="25.2" height="18" fill="#4B4E52"/>
<rect class="bg" x="58.8" y="216" width="50.4" height="18" fill="#383D42"/>
<rect class="bg" x="109.2" y="216" width="33.6" height="18" fill="#4B4E52"/>
<rect class="bg" x="142.8" y="216" width="42" height="18" fill="#383D42"/>
<rect class="bg" x="184.8" y="216" width="50.4" height="18" fill="#4B4E52"/>
<rect class="bg" x="235.2" y="216" width="268.8" height="18" fill="#383D42"/>
<rect class="bg" x="504" y="216" width="58.8" height="18" fill="#4B4E52"/>
<rect class="bg" x="562.8" y="216" width="386.4" height="18" fill="#383D42"/>
<rect class="bg" x="949.2" y="216" width="562.8" height="18" fill="#0F1D27"/>
<text class="crt" x="33.6" y="230" fill="#F6FFFF" textLength="25.2" lengthAdjust="spacing" style="font-weight:bold;">Age</text>
<text class="crt" x="109.2" y="230" fill="#F6FFFF" textLength="33.6" lengthAdjust="spacing" style="font-weight:bold;">Size</text>
<text class="crt" x="184.8" y="230" fill="#F6FFFF" textLength="50.4" lengthAdjust="spacing" style="font-weight:bold;">Branch</text>
<text class="crt" x="504" y="230" fill="#F6FFFF" textLength="58.8" lengthAdjust="spacing" style="font-weight:bold;">Summary</text>
<rect class="bg" x="0" y="234" width="949.2" height="18" fill="#16212A"/>
<rect class="bg" x="949.2" y="234" width="562.8" height="18" fill="#0F1D27"/>
<rect class="bg" x="0" y="252" width="949.2" height="18" fill="#16212A"/>
<rect class="bg" x="949.2" y="252" width="562.8" height="18" fill="#0F1D27"/>
<rect class="bg" x="0" y="270" width="949.2" height="18" fill="#16212A"/>
<rect class="bg" x="949.2" y="270" width="562.8" height="18" fill="#0F1D27"/>
<rect class="bg" x="0" y="288" width="949.2" height="18" fill="#16212A"/>
<rect class="bg" x="949.2" y="288" width="562.8" height="18" fill="#0F1D27"/>
<rect class="bg" x="0" y="306" width="949.2" height="18" fill="#16212A"/>
<rect class="bg" x="949.2" y="306" width="562.8" height="18" fill="#0F1D27"/>
<rect class="bg" x="0" y="324" width="949.2" height="18" fill="#16212A"/>
<rect class="bg" x="949.2" y="324" width="562.8" height="18" fill="#0F1D27"/>
<rect class="bg" x="0" y="342" width="949.2" height="18" fill="#16212A"/>
<rect class="bg" x="949.2" y="342" width="562.8" height="18" fill="#0F1D27"/>
<rect class="bg" x="0" y="360" width="949.2" height="18" fill="#16212A"/>
<rect class="bg" x="949.2" y="360" width="562.8" height="18" fill="#0F1D27"/>
<rect class="bg" x="0" y="378" width="949.2" height="18" fill="#16212A"/>
<rect class="bg" x="949.2" y="378" width="562.8" height="18" fill="#0F1D27"/>
<rect class="bg" x="0" y="396" width="949.2" height="18" fill="#16212A"/>
<rect class="bg" x="949.2" y="396" width="562.8" height="18" fill="#0F1D27"/>
<rect class="bg" x="0" y="414" width="949.2" height="18" fill="#16212A"/>
<rect class="bg" x="949.2" y="414" width="562.8" height="18" fill="#0F1D27"/>
<rect class="bg" x="0" y="432" width="1512" height="18" fill="#353B40"/>
<text class="crt" x="0" y="446" fill="#60B9FF" textLength="67.2" lengthAdjust="spacing" style="font-weight:bold;">[Ctrl+Z]</text>
<text class="crt" x="75.6" y="446" fill="#9AA9B4" textLength="33.6" lengthAdjust="spacing">Undo</text>
<text class="crt" x="117.6" y="446" fill="#CDE0EE" textLength="8.4" lengthAdjust="spacing">|</text>
<text class="crt" x="134.4" y="446" fill="#60B9FF" textLength="67.2" lengthAdjust="spacing" style="font-weight:bold;">[Ctrl+R]</text>
<text class="crt" x="210" y="446" fill="#9AA9B4" textLength="33.6" lengthAdjust="spacing">Redo</text>
<text class="crt" x="252" y="446" fill="#CDE0EE" textLength="8.4" lengthAdjust="spacing">|</text>
<text class="crt" x="268.8" y="446" fill="#60B9FF" textLength="67.2" lengthAdjust="spacing" style="font-weight:bold;">[Ctrl+F]</text>
<text class="crt" x="344.4" y="446" fill="#CDE0EE" textLength="50.4" lengthAdjust="spacing">Search</text>
<text class="crt" x="403.2" y="446" fill="#CDE0EE" textLength="8.4" lengthAdjust="spacing">|</text>
<text class="crt" x="420" y="446" fill="#60B9FF" textLength="25.2" lengthAdjust="spacing" style="font-weight:bold;">[i]</text>
<text class="crt" x="453.6" y="446" fill="#CDE0EE" textLength="58.8" lengthAdjust="spacing">Preview</text>
<text class="crt" x="520.8" y="446" fill="#CDE0EE" textLength="8.4" lengthAdjust="spacing">|</text>
<text class="crt" x="537.6" y="446" fill="#60B9FF" textLength="25.2" lengthAdjust="spacing" style="font-weight:bold;">[r]</text>
<text class="crt" x="571.2" y="446" fill="#CDE0EE" textLength="50.4" lengthAdjust="spacing">Resume</text>
<text class="crt" x="630" y="446" fill="#CDE0EE" textLength="8.4" lengthAdjust="spacing">|</text>
<text class="crt" x="646.8" y="446" fill="#60B9FF" textLength="25.2" lengthAdjust="spacing" style="font-weight:bold;">[s]</text>
<text class="crt" x="680.4" y="446" fill="#CDE0EE" textLength="50.4" lengthAdjust="spacing">Search</text>
<text class="crt" x="739.2" y="446" fill="#CDE0EE" textLength="25.2" lengthAdjust="spacing">All</text>
<text class="crt" x="772.8" y="446" fill="#CDE0EE" textLength="8.4" lengthAdjust="spacing">|</text>
<text class="crt" x="789.6" y="446" fill="#60B9FF" textLength="67.2" lengthAdjust="spacing" style="font-weight:bold;">[Ctrl+Q]</text>
<text class="crt" x="865.2" y="446" fill="#CDE0EE" textLength="33.6" lengthAdjust="spacing">Quit</text>
</g>
</svg>